<svg width="602" height="273" viewBox="0 0 602 273" fill="none" xmlns="http://www.w3.org/2000/svg">
  <mask id="mask0_1606_115" style="mask-type:luminance" maskUnits="userSpaceOnUse" x="16" y="16" width="570" height="241">
    <path d="M585.08 16H16V256.84H585.08V16Z" fill="white"/>
  </mask>
  <g mask="url(#mask0_1606_115)">
    <path d="M546.95 113.72L580.66 58.96H548.37L529.2 93.47L509.89 58.96H476.17L509.89 112.61L486.94 149.87L455.98 58.96H419.42L386.64 154.88V58.96H351.97L326.8 135.39L301.63 58.96H289.38L266.64 102.63V171.96H293.64V104.15L315.27 171.96H336.88L358.64 103.84V171.96H410.26L417.05 149.96H456.18L462.94 171.96H463.59H505.77L527.78 132.39L551.21 171.96H585.09L546.95 113.72ZM424.43 125.96L437.09 83.69L449.75 125.96H424.43Z" fill="black"/>
    <path d="M266.64 82.96V58.96H188.64V171.96H230.92L243.38 147.96H218.64V125.96H253.1L265.07 102.96H218.64V82.96H266.64Z" fill="black"/>
    <path d="M150.02 106.28C147.39 108.73 142.79 109.96 136.16 109.96H120.64V80.96H135.69C142.41 80.96 147.14 82.14 149.86 84.49C152.59 86.84 153.95 90.41 153.95 95.21C153.95 100.01 152.64 103.82 150.03 106.28H150.02ZM164.45 126.7C176.04 120.06 181.85 109.34 181.85 94.58C181.85 83.6 178.28 74.92 171.17 68.54C164.04 62.16 152.66 58.97 137.07 58.97H91.6299V171.97H120.63V132.97H138.48L157.81 171.97H188.02L164.45 126.7Z" fill="black"/>
    <path d="M51.62 96.62C50.26 96.62 49.09 95.8 48.12 95C41.78 89.55 30.56 79.66 26.15 74.29C22.34 69.65 19.06 65.37 17.42 59.93C16.48 56.85 16 53.61 16 50.32C16 46.01 16.82 41.8 18.44 37.81C23.82 24.56 36.85 16 51.62 16C66.39 16 79.42 24.56 84.8 37.81C86.42 41.8 87.24 46.01 87.24 50.32C87.24 53.59 86.76 56.83 85.82 59.94C84.18 65.37 80.89 69.65 77.09 74.29C72.68 79.67 61.46 89.55 55.17 94.96C54.15 95.8 52.97 96.61 51.63 96.61L51.62 96.62Z" fill="white"/>
    <path d="M83.17 38.96H19.82C18.33 42.64 17.5 46.64 17.5 50.83C17.5 54 17.97 57.06 18.85 59.96H84.13C85.01 57.06 85.48 54 85.48 50.83C85.48 46.64 84.66 42.64 83.16 38.96H83.17Z" fill="#F7F5EE"/>
    <path d="M51.49 18.3C37.15 18.3 24.91 26.8701 20 38.9601H82.99C78.07 26.8701 65.82 18.3 51.49 18.3Z" fill="#660000"/>
    <path d="M19.04 58.96C20.63 64.22 24.02 68.52 27.47 72.72C32.07 78.33 44.59 89.24 49.49 93.45C50.15 94 50.92 94.54 51.49 94.54C52.06 94.54 52.83 94 53.49 93.45C58.39 89.24 70.9 78.32 75.5 72.72C78.95 68.51 82.35 64.21 83.94 58.96H19.04Z" fill="#000E35"/>
    <path d="M83.1297 38.96H51.6396V23.94C51.6396 20.76 54.4796 18.26 57.6096 18.8C69.2996 20.8 78.9197 28.59 83.1297 38.96Z" fill="#FF1200"/>
    <path d="M84.0896 58.96C82.4996 64.22 79.1097 68.52 75.6497 72.72C71.0497 78.33 58.5296 89.24 53.6396 93.45C52.9796 94 52.2096 94.54 51.6396 94.54V64.36C51.6396 61.38 54.0596 58.96 57.0396 58.96H84.0997H84.0896Z" fill="#0043FF"/>
    <path d="M92.29 201.98H107.32V255.92H92.29V201.98Z" fill="black"/>
    <path d="M132.97 256.76C128.53 256.76 125.07 255.71 122.59 253.6C120.11 251.49 118.87 247.95 118.87 242.97V226.02H113.94V214.23H118.87V203.67H133.59V214.23H143.3V226.02H133.59V240.12C133.59 241.61 133.92 242.68 134.59 243.32C135.26 243.96 136.26 244.28 137.59 244.28C138.57 244.28 139.52 244.15 140.44 243.9C141.36 243.65 142.26 243.31 143.14 242.9V254.38C141.8 255.1 140.29 255.68 138.59 256.11C136.89 256.55 135.02 256.77 132.96 256.77L132.97 256.76Z" fill="black"/>
    <path d="M161.48 256.84C159.48 256.84 157.63 256.56 155.93 255.99C154.24 255.43 152.76 254.6 151.5 253.52C150.24 252.44 149.25 251.11 148.53 249.51C147.81 247.92 147.45 246.07 147.45 243.96V243.81C147.45 241.65 147.85 239.75 148.64 238.11C149.44 236.47 150.54 235.1 151.95 234.03C153.36 232.95 155.07 232.13 157.07 231.56C159.07 230.99 161.31 230.71 163.77 230.71C165.72 230.71 167.58 230.88 169.36 231.21C171.13 231.54 172.61 231.92 173.79 232.33V231.64C173.79 229.48 173.11 227.81 171.75 226.63C170.39 225.45 168.29 224.86 165.47 224.86C163.26 224.86 161.26 225.07 159.46 225.48C157.66 225.89 155.84 226.46 153.99 227.18L150.98 216.85C153.34 215.88 155.85 215.09 158.49 214.5C161.14 213.91 164.26 213.61 167.85 213.61C171.44 213.61 174.77 214.05 177.37 214.92C179.96 215.79 182.08 217.05 183.73 218.7C185.32 220.24 186.47 222.1 187.16 224.29C187.85 226.47 188.2 229.03 188.2 231.96V255.92H173.71V251.6C172.27 253.19 170.56 254.46 168.59 255.41C166.61 256.36 164.24 256.84 161.46 256.84H161.48ZM166.72 247.67C168.88 247.67 170.62 247.05 171.96 245.82C173.29 244.59 173.96 242.92 173.96 240.81V238.88C173.24 238.57 172.38 238.31 171.38 238.11C170.38 237.91 169.34 237.8 168.26 237.8C166.1 237.8 164.45 238.28 163.29 239.23C162.13 240.18 161.56 241.43 161.56 242.97V243.12C161.56 244.56 162.05 245.68 163.02 246.47C164 247.27 165.23 247.66 166.72 247.66V247.67Z" fill="black"/>
    <path d="M196.01 199.66H210.73V255.91H196.01V199.66Z" fill="black"/>
    <path d="M218.81 199.66H234.14V210.45H218.81V199.66ZM219.12 214.23H233.84V255.92H219.12V214.23Z" fill="black"/>
    <path d="M253.87 256.84C251.87 256.84 250.02 256.56 248.32 255.99C246.63 255.43 245.15 254.6 243.89 253.52C242.63 252.44 241.64 251.11 240.92 249.51C240.2 247.92 239.84 246.07 239.84 243.96V243.81C239.84 241.65 240.24 239.75 241.03 238.11C241.83 236.47 242.93 235.1 244.34 234.03C245.75 232.95 247.46 232.13 249.46 231.56C251.46 230.99 253.7 230.71 256.16 230.71C258.11 230.71 259.97 230.88 261.75 231.21C263.52 231.54 265 231.92 266.18 232.33V231.64C266.18 229.48 265.5 227.81 264.14 226.63C262.78 225.45 260.68 224.86 257.86 224.86C255.65 224.86 253.65 225.07 251.85 225.48C250.05 225.89 248.23 226.46 246.38 227.18L243.37 216.85C245.73 215.88 248.24 215.09 250.88 214.5C253.53 213.91 256.65 213.61 260.24 213.61C263.83 213.61 267.16 214.05 269.76 214.92C272.35 215.79 274.47 217.05 276.12 218.7C277.71 220.24 278.86 222.1 279.55 224.29C280.24 226.47 280.59 229.03 280.59 231.96V255.92H266.1V251.6C264.66 253.19 262.95 254.46 260.98 255.41C259 256.36 256.63 256.84 253.85 256.84H253.87ZM259.11 247.67C261.27 247.67 263.01 247.05 264.35 245.82C265.68 244.59 266.35 242.92 266.35 240.81V238.88C265.63 238.57 264.77 238.31 263.77 238.11C262.77 237.91 261.73 237.8 260.65 237.8C258.49 237.8 256.84 238.28 255.68 239.23C254.52 240.18 253.95 241.43 253.95 242.97V243.12C253.95 244.56 254.44 245.68 255.41 246.47C256.39 247.27 257.62 247.66 259.11 247.66V247.67Z" fill="black"/>
  </g>
</svg>
